<svg width="24" height="29" viewBox="0 0 24 29" fill="none" xmlns="http://www.w3.org/2000/svg">
<path d="M11.8184 13.8568C13.722 13.8568 15.3702 13.174 16.7174 11.8269C18.064 10.48 18.747 8.83206 18.747 6.92821C18.747 5.02492 18.0643 3.37677 16.7171 2.02942C15.37 0.682747 13.7218 0 11.8184 0C9.9145 0 8.26646 0.682747 6.91961 2.02964C5.57277 3.37654 4.88974 5.02476 4.88974 6.92821C4.88974 8.83206 5.57272 10.4803 6.91967 11.8272C8.26696 13.1738 9.91517 13.8568 11.8183 13.8568H11.8184ZM8.11178 3.22159C9.14523 2.18808 10.3576 1.68574 11.8184 1.68574C13.279 1.68574 14.4915 2.18808 15.5252 3.22159C16.5587 4.25526 17.0613 5.46782 17.0613 6.92815C17.0613 8.38894 16.5587 9.60133 15.5252 10.635C14.4915 11.6687 13.279 12.1711 11.8184 12.1711C10.358 12.1711 9.14573 11.6685 8.11178 10.635C7.07805 9.60156 6.57549 8.38899 6.57549 6.92821C6.57549 5.46782 7.07805 4.25526 8.11178 3.22159ZM23.9416 22.1198C23.9027 21.5593 23.8242 20.9478 23.7085 20.3022C23.5917 19.6516 23.4415 19.0367 23.2614 18.4746C23.0754 17.8937 22.8228 17.32 22.51 16.7702C22.1858 16.1996 21.8049 15.7027 21.3773 15.2939C20.9303 14.8662 20.3829 14.5223 19.7499 14.2713C19.1192 14.0219 18.4202 13.8955 17.6725 13.8955C17.3788 13.8955 17.0949 14.0159 16.5464 14.373C16.1565 14.6269 15.7655 14.879 15.3733 15.1293C14.9965 15.3694 14.486 15.5944 13.8555 15.798C13.2403 15.9971 12.6157 16.098 11.999 16.098C11.3828 16.098 10.7581 15.9971 10.1425 15.798C9.51267 15.5945 9.00196 15.3696 8.62575 15.1295C8.1892 14.8505 7.79423 14.596 7.45162 14.3728C6.9036 14.0157 6.61959 13.8952 6.32597 13.8952C5.578 13.8952 4.87924 14.0218 4.24869 14.2716C3.61617 14.522 3.0686 14.8659 2.62109 15.2941C2.19359 15.7032 1.81261 16.1998 1.48865 16.7702C1.17638 17.32 0.923552 17.8935 0.737414 18.4749C0.557626 19.0369 0.407334 19.6516 0.290583 20.3022C0.174676 20.9469 0.0963555 21.5586 0.0574762 22.1205C0.0192711 22.6698 0 23.2415 0 23.8191C0 25.3208 0.477339 26.5364 1.41864 27.4329C2.34832 28.3177 3.57824 28.7662 5.07431 28.7662H18.9254C20.4211 28.7662 21.651 28.3176 22.5809 27.4329C23.5224 26.537 23.9998 25.321 23.9998 23.8189C23.9995 23.2393 23.98 22.6676 23.9416 22.1198ZM21.4186 26.2116C20.8043 26.7962 19.9887 27.0804 18.9252 27.0804H5.07436C4.01063 27.0804 3.19507 26.7962 2.58098 26.2118C1.97857 25.6383 1.6858 24.8555 1.6858 23.8191C1.6858 23.2801 1.70355 22.7479 1.73917 22.237C1.77378 21.7357 1.84469 21.1851 1.94986 20.6C2.05364 20.0221 2.18572 19.4798 2.34287 18.9889C2.49367 18.5181 2.6993 18.052 2.95432 17.6029C3.19771 17.1749 3.47773 16.8078 3.78674 16.512C4.07581 16.2352 4.44016 16.0087 4.86941 15.8389C5.2664 15.6817 5.71261 15.5957 6.19698 15.5827C6.25597 15.6141 6.36115 15.674 6.53144 15.785C6.87798 16.0109 7.27739 16.2686 7.719 16.5506C8.21679 16.8679 8.85802 17.1545 9.6242 17.4019C10.4075 17.6551 11.2063 17.7837 11.9993 17.7837C12.7922 17.7837 13.5913 17.6551 14.3742 17.4021C15.141 17.1543 15.782 16.8679 16.2805 16.5501C16.7324 16.2613 17.1206 16.0111 17.4671 15.785C17.6374 15.6742 17.7425 15.6141 17.8016 15.5827C18.2862 15.5957 18.7323 15.6817 19.1296 15.8388C19.5586 16.0087 19.923 16.2354 20.212 16.5119C20.521 16.8075 20.801 17.1748 21.0444 17.6032C21.2997 18.052 21.5056 18.5183 21.6561 18.9887C21.8135 19.4803 21.9458 20.0223 22.0494 20.5997C22.1543 21.186 22.2254 21.7368 22.2601 22.2372V22.2377C22.2959 22.7466 22.3138 23.2786 22.3141 23.8191C22.3138 24.8557 22.0211 25.6384 21.4187 26.2116H21.4186Z" fill="black"/>
</svg>
