<svg width="32" height="31" viewBox="0 0 32 31" fill="none" xmlns="http://www.w3.org/2000/svg">
<path d="M10.2079 24.3493C8.36278 24.3493 6.86712 25.8381 6.86712 27.6746C6.86712 29.5112 8.36285 31 10.2079 31C12.0529 31 13.5486 29.5112 13.5486 27.6746C13.5487 25.8381 12.0529 24.3493 10.2079 24.3493ZM10.2079 29.5221C9.18283 29.5221 8.35191 28.695 8.35191 27.6747C8.35191 26.6544 9.18283 25.8273 10.2079 25.8273C11.2329 25.8273 12.0638 26.6544 12.0638 27.6747C12.0639 28.695 11.2329 29.5221 10.2079 29.5221ZM24.3133 24.3493C22.4683 24.3493 20.9726 25.8381 20.9726 27.6746C20.9726 29.5112 22.4683 31 24.3133 31C26.1583 31 27.6541 29.5112 27.6541 27.6746C27.6541 25.8381 26.1584 24.3493 24.3133 24.3493ZM24.3133 29.5221C23.2883 29.5221 22.4574 28.695 22.4574 27.6747C22.4574 26.6544 23.2883 25.8273 24.3133 25.8273C25.3384 25.8273 26.1693 26.6544 26.1693 27.6747C26.1694 28.695 25.3384 29.5221 24.3133 29.5221ZM31.8486 4.9512C31.694 4.78313 31.4825 4.67785 31.2547 4.65558L7.08986 4.32304L6.42172 2.29084C5.95102 0.932332 4.67298 0.0152053 3.2294 0H0.742394C0.332368 0 0 0.330839 0 0.738978C0 1.14712 0.332368 1.47796 0.742394 1.47796H3.2294C3.62352 1.48663 4.00553 1.61521 4.32406 1.8464C4.64259 2.07759 4.88237 2.40032 5.01118 2.77118L9.72537 16.9226L9.3542 17.7724C9.15014 18.2962 9.07401 18.8608 9.13209 19.4197C9.19017 19.9786 9.3808 20.5157 9.68828 20.9869C9.99265 21.4495 10.4047 21.8321 10.8893 22.1022C11.374 22.3724 11.917 22.5222 12.4723 22.5388H26.9118C27.3219 22.5388 27.6542 22.2079 27.6542 21.7998C27.6542 21.3917 27.3219 21.0608 26.9118 21.0608H12.4722C12.1589 21.053 11.8524 20.9679 11.5803 20.8131C11.3082 20.6583 11.079 20.4388 10.9132 20.174C10.7488 19.9119 10.6467 19.6159 10.6145 19.3086C10.5823 19.0013 10.621 18.6907 10.7276 18.4005L11.0246 17.7354L26.6519 16.1096C28.3685 15.9214 29.7805 14.6787 30.1783 13.0059L31.9601 5.57921C31.9995 5.47416 32.01 5.36051 31.9904 5.25008C31.9708 5.13964 31.9218 5.03644 31.8486 4.9512ZM28.7306 12.6734C28.4896 13.7503 27.5712 14.5445 26.4663 14.6317L11.0246 16.2205L7.57243 5.801L30.3267 6.13353L28.7306 12.6734Z" fill="black"/>
</svg>
