<svg width="31" height="12" viewBox="0 0 31 12" fill="none" xmlns="http://www.w3.org/2000/svg">
<path d="M14.4686 9.37431H13.3306V0.637443H16.3476C17.1122 0.637443 17.7642 0.888931 18.2977 1.39185C18.843 1.89477 19.1157 2.50879 19.1157 3.23393C19.1157 3.97662 18.843 4.59065 18.2977 5.08771C17.7701 5.58478 17.1182 5.83041 16.3476 5.83041H14.4686V9.37431ZM14.4686 1.71347V4.76024H16.3713C16.8218 4.76024 17.2012 4.60821 17.4975 4.30995C17.7998 4.01169 17.9539 3.64915 17.9539 3.23978C17.9539 2.83626 17.7998 2.47952 17.4975 2.18132C17.2011 1.87135 16.8277 1.71932 16.3713 1.71932H14.4686V1.71347ZM22.0912 3.19886C22.9329 3.19886 23.5968 3.42108 24.0828 3.86552C24.5688 4.30995 24.8118 4.91812 24.8118 5.69009V9.37431H23.7271V8.54392H23.6797C23.2114 9.22813 22.5831 9.56731 21.8007 9.56731C21.131 9.56731 20.5738 9.37431 20.1233 8.9825C19.6728 8.59069 19.4476 8.10528 19.4476 7.52052C19.4476 6.90064 19.6847 6.40943 20.1589 6.04683C20.6331 5.67844 21.2673 5.49714 22.0557 5.49714C22.7314 5.49714 23.2886 5.61996 23.7212 5.86553V5.60825C23.7212 5.21644 23.5671 4.88897 23.253 4.61413C22.9388 4.33928 22.5713 4.20476 22.1505 4.20476C21.5162 4.20476 21.0124 4.46789 20.6449 5.00008L19.6432 4.3802C20.1944 3.59067 21.0124 3.19886 22.0912 3.19886ZM20.6212 7.53802C20.6212 7.83043 20.7457 8.07607 21.0006 8.26901C21.2495 8.46202 21.5459 8.56142 21.8838 8.56142C22.3639 8.56142 22.7906 8.38597 23.1641 8.03508C23.5375 7.6842 23.7272 7.27483 23.7272 6.80118C23.3715 6.52633 22.8796 6.38595 22.2453 6.38595C21.783 6.38595 21.3977 6.49706 21.0895 6.71343C20.7753 6.9415 20.6212 7.2164 20.6212 7.53802ZM31 3.39181L27.2065 12H26.0329L27.4435 8.98829L24.9422 3.39181H26.181L27.983 7.6842H28.0067L29.7612 3.39181H31Z" fill="#ACACAC"/>
<path d="M9.8471 4.06957H5.0768V5.9994L7.82411 6C7.7127 6.6421 7.35408 7.18946 6.80462 7.55439L6.75576 8.70783L8.4406 8.80586L8.43993 8.80646C9.39482 7.93455 9.94198 6.64563 9.94198 5.12284C9.94228 4.76966 9.91053 4.41716 9.8471 4.06957Z" fill="#ACACAC"/>
<path d="M6.80462 7.55439C6.34949 7.85707 5.7634 8.03449 5.07795 8.03449C3.75318 8.03449 2.62937 7.1538 2.22691 5.96667L0.82035 5.7475L0.54026 7.25828C1.37611 8.89433 3.0937 10.0169 5.07801 10.0169C6.44921 10.0169 7.60124 9.57221 8.43993 8.80646L8.4406 8.80586L6.80462 7.55439Z" fill="#ACACAC"/>
<path d="M2.06804 5.00874C2.06804 4.67542 2.12435 4.3532 2.22691 4.05028L1.78771 2.75902H0.539957C0.194416 3.43565 0 4.19938 0 5.00874C0 5.8181 0.195324 6.58165 0.54026 7.25828L2.22691 5.96667C2.12188 5.65773 2.06823 5.3346 2.06804 5.00874Z" fill="#ACACAC"/>
<path d="M5.07795 0C3.09407 0 1.37575 1.12274 0.539957 2.75902L2.22691 4.05028C2.62937 2.86314 3.75312 1.98252 5.07789 1.98252C5.82649 1.98252 6.49692 2.23693 7.02622 2.734L8.47547 1.30535C7.5953 0.496466 6.44776 0 5.07795 0Z" fill="#ACACAC"/>
</svg>
