<svg style="display: none;" aria-hidden="true" xmlns="http://www.w3.org/2000/svg" xmlns:xlink="http://www.w3.org/1999/xlink">
	<symbol id="account-svg" viewBox="0 0 24 29">
		<g>
			<path d="M11.8184 13.8568C13.722 13.8568 15.3702 13.174 16.7174 11.8269C18.064 10.48 18.747 8.83206 18.747 6.92821C18.747 5.02492 18.0643 3.37677 16.7171 2.02942C15.37 0.682747 13.7218 0 11.8184 0C9.9145 0 8.26646 0.682747 6.91961 2.02964C5.57277 3.37654 4.88974 5.02476 4.88974 6.92821C4.88974 8.83206 5.57272 10.4803 6.91967 11.8272C8.26696 13.1738 9.91517 13.8568 11.8183 13.8568H11.8184ZM8.11178 3.22159C9.14523 2.18808 10.3576 1.68574 11.8184 1.68574C13.279 1.68574 14.4915 2.18808 15.5252 3.22159C16.5587 4.25526 17.0613 5.46782 17.0613 6.92815C17.0613 8.38894 16.5587 9.60133 15.5252 10.635C14.4915 11.6687 13.279 12.1711 11.8184 12.1711C10.358 12.1711 9.14573 11.6685 8.11178 10.635C7.07805 9.60156 6.57549 8.38899 6.57549 6.92821C6.57549 5.46782 7.07805 4.25526 8.11178 3.22159ZM23.9416 22.1198C23.9027 21.5593 23.8242 20.9478 23.7085 20.3022C23.5917 19.6516 23.4415 19.0367 23.2614 18.4746C23.0754 17.8937 22.8228 17.32 22.51 16.7702C22.1858 16.1996 21.8049 15.7027 21.3773 15.2939C20.9303 14.8662 20.3829 14.5223 19.7499 14.2713C19.1192 14.0219 18.4202 13.8955 17.6725 13.8955C17.3788 13.8955 17.0949 14.0159 16.5464 14.373C16.1565 14.6269 15.7655 14.879 15.3733 15.1293C14.9965 15.3694 14.486 15.5944 13.8555 15.798C13.2403 15.9971 12.6157 16.098 11.999 16.098C11.3828 16.098 10.7581 15.9971 10.1425 15.798C9.51267 15.5945 9.00196 15.3696 8.62575 15.1295C8.1892 14.8505 7.79423 14.596 7.45162 14.3728C6.9036 14.0157 6.61959 13.8952 6.32597 13.8952C5.578 13.8952 4.87924 14.0218 4.24869 14.2716C3.61617 14.522 3.0686 14.8659 2.62109 15.2941C2.19359 15.7032 1.81261 16.1998 1.48865 16.7702C1.17638 17.32 0.923552 17.8935 0.737414 18.4749C0.557626 19.0369 0.407334 19.6516 0.290583 20.3022C0.174676 20.9469 0.0963555 21.5586 0.0574762 22.1205C0.0192711 22.6698 0 23.2415 0 23.8191C0 25.3208 0.477339 26.5364 1.41864 27.4329C2.34832 28.3177 3.57824 28.7662 5.07431 28.7662H18.9254C20.4211 28.7662 21.651 28.3176 22.5809 27.4329C23.5224 26.537 23.9998 25.321 23.9998 23.8189C23.9995 23.2393 23.98 22.6676 23.9416 22.1198ZM21.4186 26.2116C20.8043 26.7962 19.9887 27.0804 18.9252 27.0804H5.07436C4.01063 27.0804 3.19507 26.7962 2.58098 26.2118C1.97857 25.6383 1.6858 24.8555 1.6858 23.8191C1.6858 23.2801 1.70355 22.7479 1.73917 22.237C1.77378 21.7357 1.84469 21.1851 1.94986 20.6C2.05364 20.0221 2.18572 19.4798 2.34287 18.9889C2.49367 18.5181 2.6993 18.052 2.95432 17.6029C3.19771 17.1749 3.47773 16.8078 3.78674 16.512C4.07581 16.2352 4.44016 16.0087 4.86941 15.8389C5.2664 15.6817 5.71261 15.5957 6.19698 15.5827C6.25597 15.6141 6.36115 15.674 6.53144 15.785C6.87798 16.0109 7.27739 16.2686 7.719 16.5506C8.21679 16.8679 8.85802 17.1545 9.6242 17.4019C10.4075 17.6551 11.2063 17.7837 11.9993 17.7837C12.7922 17.7837 13.5913 17.6551 14.3742 17.4021C15.141 17.1543 15.782 16.8679 16.2805 16.5501C16.7324 16.2613 17.1206 16.0111 17.4671 15.785C17.6374 15.6742 17.7425 15.6141 17.8016 15.5827C18.2862 15.5957 18.7323 15.6817 19.1296 15.8388C19.5586 16.0087 19.923 16.2354 20.212 16.5119C20.521 16.8075 20.801 17.1748 21.0444 17.6032C21.2997 18.052 21.5056 18.5183 21.6561 18.9887C21.8135 19.4803 21.9458 20.0223 22.0494 20.5997C22.1543 21.186 22.2254 21.7368 22.2601 22.2372V22.2377C22.2959 22.7466 22.3138 23.2786 22.3141 23.8191C22.3138 24.8557 22.0211 25.6384 21.4187 26.2116H21.4186Z" fill="black"/>
		</g>
	</symbol>
	<symbol id="arrow-right-svg" viewBox="0 0 32 24">
		<g>
			<path d="M31.0607 13.0607C31.6464 12.4749 31.6464 11.5251 31.0607 10.9393L21.5147 1.3934C20.9289 0.807611 19.9792 0.807611 19.3934 1.3934C18.8076 1.97919 18.8076 2.92893 19.3934 3.51472L27.8787 12L19.3934 20.4853C18.8076 21.0711 18.8076 22.0208 19.3934 22.6066C19.9792 23.1924 20.9289 23.1924 21.5147 22.6066L31.0607 13.0607ZM0 13.5H30V10.5H0V13.5Z" fill="black"/>
		</g>
	</symbol>
	<symbol id="cart-svg" viewBox="0 0 32 31">
		<g>
			<path d="M10.2079 24.3493C8.36278 24.3493 6.86712 25.8381 6.86712 27.6746C6.86712 29.5112 8.36285 31 10.2079 31C12.0529 31 13.5486 29.5112 13.5486 27.6746C13.5487 25.8381 12.0529 24.3493 10.2079 24.3493ZM10.2079 29.5221C9.18283 29.5221 8.35191 28.695 8.35191 27.6747C8.35191 26.6544 9.18283 25.8273 10.2079 25.8273C11.2329 25.8273 12.0638 26.6544 12.0638 27.6747C12.0639 28.695 11.2329 29.5221 10.2079 29.5221ZM24.3133 24.3493C22.4683 24.3493 20.9726 25.8381 20.9726 27.6746C20.9726 29.5112 22.4683 31 24.3133 31C26.1583 31 27.6541 29.5112 27.6541 27.6746C27.6541 25.8381 26.1584 24.3493 24.3133 24.3493ZM24.3133 29.5221C23.2883 29.5221 22.4574 28.695 22.4574 27.6747C22.4574 26.6544 23.2883 25.8273 24.3133 25.8273C25.3384 25.8273 26.1693 26.6544 26.1693 27.6747C26.1694 28.695 25.3384 29.5221 24.3133 29.5221ZM31.8486 4.9512C31.694 4.78313 31.4825 4.67785 31.2547 4.65558L7.08986 4.32304L6.42172 2.29084C5.95102 0.932332 4.67298 0.0152053 3.2294 0H0.742394C0.332368 0 0 0.330839 0 0.738978C0 1.14712 0.332368 1.47796 0.742394 1.47796H3.2294C3.62352 1.48663 4.00553 1.61521 4.32406 1.8464C4.64259 2.07759 4.88237 2.40032 5.01118 2.77118L9.72537 16.9226L9.3542 17.7724C9.15014 18.2962 9.07401 18.8608 9.13209 19.4197C9.19017 19.9786 9.3808 20.5157 9.68828 20.9869C9.99265 21.4495 10.4047 21.8321 10.8893 22.1022C11.374 22.3724 11.917 22.5222 12.4723 22.5388H26.9118C27.3219 22.5388 27.6542 22.2079 27.6542 21.7998C27.6542 21.3917 27.3219 21.0608 26.9118 21.0608H12.4722C12.1589 21.053 11.8524 20.9679 11.5803 20.8131C11.3082 20.6583 11.079 20.4388 10.9132 20.174C10.7488 19.9119 10.6467 19.6159 10.6145 19.3086C10.5823 19.0013 10.621 18.6907 10.7276 18.4005L11.0246 17.7354L26.6519 16.1096C28.3685 15.9214 29.7805 14.6787 30.1783 13.0059L31.9601 5.57921C31.9995 5.47416 32.01 5.36051 31.9904 5.25008C31.9708 5.13964 31.9218 5.03644 31.8486 4.9512ZM28.7306 12.6734C28.4896 13.7503 27.5712 14.5445 26.4663 14.6317L11.0246 16.2205L7.57243 5.801L30.3267 6.13353L28.7306 12.6734Z" fill="black"/>
		</g>
	</symbol>
	<symbol id="delete-item-svg" viewBox="0 0 15 15">
		<g>
			<path d="M1 1L13.8629 14M14 1L1.13712 14" stroke="black"/>
		</g>
	</symbol>
	<symbol id="g-pay-svg" viewBox="0 0 31 12">
		<g>
			<path d="M14.4686 9.37431H13.3306V0.637443H16.3476C17.1122 0.637443 17.7642 0.888931 18.2977 1.39185C18.843 1.89477 19.1157 2.50879 19.1157 3.23393C19.1157 3.97662 18.843 4.59065 18.2977 5.08771C17.7701 5.58478 17.1182 5.83041 16.3476 5.83041H14.4686V9.37431ZM14.4686 1.71347V4.76024H16.3713C16.8218 4.76024 17.2012 4.60821 17.4975 4.30995C17.7998 4.01169 17.9539 3.64915 17.9539 3.23978C17.9539 2.83626 17.7998 2.47952 17.4975 2.18132C17.2011 1.87135 16.8277 1.71932 16.3713 1.71932H14.4686V1.71347ZM22.0912 3.19886C22.9329 3.19886 23.5968 3.42108 24.0828 3.86552C24.5688 4.30995 24.8118 4.91812 24.8118 5.69009V9.37431H23.7271V8.54392H23.6797C23.2114 9.22813 22.5831 9.56731 21.8007 9.56731C21.131 9.56731 20.5738 9.37431 20.1233 8.9825C19.6728 8.59069 19.4476 8.10528 19.4476 7.52052C19.4476 6.90064 19.6847 6.40943 20.1589 6.04683C20.6331 5.67844 21.2673 5.49714 22.0557 5.49714C22.7314 5.49714 23.2886 5.61996 23.7212 5.86553V5.60825C23.7212 5.21644 23.5671 4.88897 23.253 4.61413C22.9388 4.33928 22.5713 4.20476 22.1505 4.20476C21.5162 4.20476 21.0124 4.46789 20.6449 5.00008L19.6432 4.3802C20.1944 3.59067 21.0124 3.19886 22.0912 3.19886ZM20.6212 7.53802C20.6212 7.83043 20.7457 8.07607 21.0006 8.26901C21.2495 8.46202 21.5459 8.56142 21.8838 8.56142C22.3639 8.56142 22.7906 8.38597 23.1641 8.03508C23.5375 7.6842 23.7272 7.27483 23.7272 6.80118C23.3715 6.52633 22.8796 6.38595 22.2453 6.38595C21.783 6.38595 21.3977 6.49706 21.0895 6.71343C20.7753 6.9415 20.6212 7.2164 20.6212 7.53802ZM31 3.39181L27.2065 12H26.0329L27.4435 8.98829L24.9422 3.39181H26.181L27.983 7.6842H28.0067L29.7612 3.39181H31Z" fill="#ACACAC"/>
			<path d="M9.8471 4.06957H5.0768V5.9994L7.82411 6C7.7127 6.6421 7.35408 7.18946 6.80462 7.55439L6.75576 8.70783L8.4406 8.80586L8.43993 8.80646C9.39482 7.93455 9.94198 6.64563 9.94198 5.12284C9.94228 4.76966 9.91053 4.41716 9.8471 4.06957Z" fill="#ACACAC"/>
			<path d="M6.80462 7.55439C6.34949 7.85707 5.7634 8.03449 5.07795 8.03449C3.75318 8.03449 2.62937 7.1538 2.22691 5.96667L0.82035 5.7475L0.54026 7.25828C1.37611 8.89433 3.0937 10.0169 5.07801 10.0169C6.44921 10.0169 7.60124 9.57221 8.43993 8.80646L8.4406 8.80586L6.80462 7.55439Z" fill="#ACACAC"/>
			<path d="M2.06804 5.00874C2.06804 4.67542 2.12435 4.3532 2.22691 4.05028L1.78771 2.75902H0.539957C0.194416 3.43565 0 4.19938 0 5.00874C0 5.8181 0.195324 6.58165 0.54026 7.25828L2.22691 5.96667C2.12188 5.65773 2.06823 5.3346 2.06804 5.00874Z" fill="#ACACAC"/>
			<path d="M5.07795 0C3.09407 0 1.37575 1.12274 0.539957 2.75902L2.22691 4.05028C2.62937 2.86314 3.75312 1.98252 5.07789 1.98252C5.82649 1.98252 6.49692 2.23693 7.02622 2.734L8.47547 1.30535C7.5953 0.496466 6.44776 0 5.07795 0Z" fill="#ACACAC"/>
		</g>
	</symbol>
	<symbol id="mastercard-svg" viewBox="0 0 15 10">
		<g>
			<path d="M4.99995 10C5.91075 10 6.76455 9.75648 7.49993 9.33094C8.23545 9.75648 9.08911 10 10 10C12.7615 10 15 7.76134 15 5C15 2.23859 12.7613 0 10 0C9.08911 0 8.23545 0.243594 7.49993 0.669061C6.76455 0.243594 5.91075 0 4.99995 0C2.23853 0 0 2.23859 0 5C0 7.76141 2.23853 10 4.99995 10ZM8.88215 1.84925C9.23191 1.7248 9.60799 1.65641 10 1.65641C11.8437 1.65641 13.3435 3.15634 13.3435 5C13.3435 6.84366 11.8437 8.34359 10 8.34359C9.60799 8.34359 9.23191 8.27527 8.88215 8.15082C9.58082 7.29085 10 6.19446 10 5.00007C10 3.80568 9.58082 2.70915 8.88215 1.84925Z" fill="#ACACAC"/>
		</g>
	</symbol>
	<symbol id="paypal-svg" viewBox="0 0 52 14">
		<g>
			<path d="M9.3199 2.28067C9.14341 1.93868 8.87576 1.65155 8.54622 1.45068C8.16688 1.22773 7.74984 1.07545 7.31556 1.00132C6.76282 0.911316 6.20349 0.867389 5.64339 0.869998L2.68589 0.872051C2.52991 0.87886 2.38009 0.934511 2.25782 1.03106C2.13555 1.1276 2.04708 1.26011 2.00505 1.40964L0.0151554 10.0296C-0.0570544 10.321 0.135849 10.5651 0.443256 10.5651H1.8596C2.0158 10.5606 2.16637 10.5061 2.28886 10.4096C2.41136 10.3131 2.49923 10.1798 2.5394 10.0296L3.02527 7.93669C3.06558 7.78684 3.15338 7.65392 3.27565 7.55763C3.39793 7.46135 3.54815 7.40683 3.70404 7.40217H4.10945C5.84145 7.40012 7.18249 7.04822 8.14598 6.3434C9.11462 5.63755 9.59223 4.70497 9.59223 3.54976C9.5912 3.04397 9.50765 2.61923 9.3199 2.28067ZM6.26543 5.09688C5.83733 5.40877 5.24211 5.56471 4.47462 5.56471H4.12802C3.81958 5.56471 3.6308 5.32259 3.69785 5.02711L4.12389 3.19683C4.18372 2.90341 4.49422 2.66027 4.79854 2.66232L5.26274 2.65924C5.80432 2.65924 6.21797 2.7526 6.49443 2.93317C6.7678 3.11168 6.905 3.39587 6.90294 3.77239C6.91119 4.34486 6.69146 4.78499 6.26543 5.09688ZM49.6955 1.54507L49.6068 1.57174L49.4881 1.58816L49.3427 1.56559L49.2684 1.49377L49.2344 1.38092L49.2323 1.21164V0.584786H49.7058V0.390882H49.2323V0H48.9981V0.390882H48.8393V0.584786H48.9981V1.31423L49.1075 1.67536L49.4293 1.79027L49.5645 1.77898L49.7079 1.75128V1.54507H49.6955ZM51.8917 0.490399L51.5533 0.351898L51.3037 0.402169L51.0499 0.572474L50.9024 0.409351L50.6631 0.352924L50.433 0.403195L50.2154 0.542722V0.390882H49.9854V1.76052H50.2144V0.737652L50.4073 0.618642L50.5991 0.571449L50.7559 0.59915L50.8333 0.678147L50.8673 0.809468L50.8787 0.978747V1.76154H51.1087V0.885387L51.1046 0.812546L51.1005 0.745859L51.2965 0.62172L51.4904 0.573501L51.642 0.6012L51.7246 0.6802L51.7535 0.812546L51.7689 0.979774V1.76257H52V0.873076L51.8917 0.490399ZM16.1499 3.51282C15.6156 3.21325 14.7717 3.06346 13.6184 3.06346C13.048 3.06346 12.4796 3.10758 11.905 3.19581C11.481 3.26044 11.4398 3.27275 11.1788 3.32918C10.6403 3.44614 10.5557 3.98065 10.5557 3.98065L10.3824 4.68958C10.2844 5.14202 10.5464 5.12458 10.6558 5.08662C10.891 5.01686 11.022 4.94504 11.5027 4.83834C11.9617 4.73472 12.4456 4.65675 12.8293 4.66188C13.3956 4.66188 13.8289 4.72138 14.1177 4.84244C14.4024 4.96556 14.5448 5.1769 14.5448 5.48263L14.52 5.68167L14.3158 5.80683C13.5122 5.8571 12.9314 5.93097 12.2269 6.03254C11.5378 6.12795 10.9333 6.29518 10.4309 6.52396C9.89139 6.75993 9.49114 7.07695 9.21159 7.48014C8.94132 7.88539 8.80618 8.37681 8.80618 8.95339C8.80618 9.49612 9.00218 9.94445 9.38283 10.2912C9.76554 10.6318 10.271 10.798 10.8755 10.798C11.2582 10.796 11.5543 10.7662 11.7647 10.716L12.4507 10.481L13.0315 10.1609L13.5658 9.81005L13.5731 9.82031L13.5194 10.046L13.5163 10.0553V10.0573C13.4586 10.3323 13.6257 10.558 13.8949 10.5846L13.9001 10.5908H15.2153L15.2339 10.5826C15.3763 10.5638 15.51 10.5039 15.6184 10.4101C15.7268 10.3163 15.8051 10.1929 15.8435 10.0553L16.8761 5.60985L16.9298 5.24769L16.9545 4.90811C16.9587 4.27818 16.6853 3.81137 16.1499 3.51282ZM13.866 8.51121L13.6453 8.80053L13.0882 9.08677C12.8539 9.18661 12.6024 9.2406 12.3476 9.24579C11.9989 9.24579 11.7255 9.19551 11.5409 9.09292L11.2675 8.56456C11.2675 8.27832 11.3335 8.05159 11.4748 7.87718L12.0752 7.47091C12.3321 7.38473 12.6457 7.31189 13.0088 7.26161C13.3327 7.2216 13.9723 7.14876 14.0558 7.14671L14.1538 7.31804C14.1342 7.41551 13.9527 8.1706 13.866 8.51121ZM41.8752 3.51898C41.3377 3.21941 40.4949 3.06859 39.3447 3.06859C38.7743 3.06859 38.2048 3.11271 37.6323 3.20402C37.2073 3.26557 37.165 3.27891 36.903 3.33431C36.3656 3.45024 36.282 3.98681 36.282 3.98681L36.1087 4.69471C36.0117 5.14715 36.2676 5.12663 36.3872 5.09175C36.6234 5.02198 36.7503 4.95325 37.2269 4.84244C37.6839 4.73985 38.1718 4.66393 38.5566 4.66598C39.1209 4.66598 39.5541 4.72651 39.8419 4.84758C40.1287 4.97069 40.269 5.18408 40.269 5.48674L40.2473 5.68474L40.0452 5.81299C39.2333 5.86121 38.6515 5.93507 37.9542 6.03664C37.2671 6.13205 36.6606 6.29826 36.1572 6.52807C35.6197 6.76506 35.2143 7.08207 34.9379 7.4863C34.6645 7.89154 34.5314 8.38194 34.5314 8.95339C34.5314 9.50022 34.7254 9.94856 35.1112 10.2933C35.4959 10.6329 35.9963 10.8032 36.6007 10.8032C36.9814 10.7991 37.2775 10.7744 37.4889 10.7201L38.1729 10.4882L38.7588 10.1681L39.289 9.81313L39.2983 9.82442L39.2498 10.0522L39.2447 10.0563L39.2467 10.0604C39.1828 10.3353 39.3509 10.5631 39.6232 10.5877L39.6253 10.5928H40.9395L40.9612 10.5857C41.1032 10.5662 41.2362 10.5053 41.3434 10.4108C41.4506 10.3162 41.5273 10.1921 41.5636 10.0542L42.5993 5.61498L42.654 5.25077L42.6839 4.91016C42.6849 4.28228 42.4147 3.81753 41.8752 3.51898ZM39.5964 8.51737L39.3664 8.80976L38.8145 9.09395C38.581 9.19288 38.3307 9.24684 38.0769 9.25297C37.7169 9.25297 37.4508 9.20167 37.2713 9.09908L36.9948 8.57277C36.9948 8.2855 37.0619 8.06082 37.197 7.88334C37.3342 7.71611 37.5436 7.57863 37.8036 7.47809C38.1074 7.38067 38.4195 7.31096 38.7361 7.26982C39.0579 7.22981 39.6955 7.15492 39.778 7.15389L39.878 7.32522C39.8636 7.42269 39.681 8.1747 39.5964 8.51737ZM35.041 2.31247C34.8599 1.97097 34.5907 1.68348 34.2612 1.47941C33.8833 1.25335 33.4657 1.10085 33.0305 1.03005C32.4799 0.93956 31.9225 0.896312 31.3645 0.900777L28.4029 0.902828C28.2478 0.909786 28.099 0.965335 27.9776 1.06153C27.8563 1.15772 27.7686 1.28963 27.7272 1.43837L25.7352 10.0624C25.663 10.3548 25.8611 10.597 26.1623 10.597L27.5807 10.5949C27.7364 10.5893 27.8863 10.5346 28.0087 10.4387C28.1311 10.3428 28.2196 10.2107 28.2616 10.0614L28.7412 7.96746C28.783 7.81802 28.8714 7.68567 28.9938 7.58957C29.1162 7.49347 29.2662 7.43862 29.4221 7.43295H29.8275C31.5615 7.43295 32.9057 7.07797 33.8733 6.3752C34.8296 5.66422 35.3134 4.73369 35.3134 3.57746C35.3082 3.07372 35.2205 2.64796 35.041 2.31247ZM31.9865 5.13279C31.5595 5.43852 30.9632 5.59446 30.1999 5.59446H29.8471C29.7794 5.59852 29.7118 5.5864 29.6498 5.5591C29.5879 5.53181 29.5334 5.49014 29.491 5.43759C29.4485 5.38504 29.4194 5.32313 29.4059 5.25707C29.3925 5.19101 29.3952 5.12271 29.4138 5.05789L29.8429 3.23069C29.8824 3.08077 29.9697 2.94762 30.0917 2.85124C30.2137 2.75486 30.3639 2.70045 30.5197 2.69618L30.9787 2.6931C31.5234 2.69617 31.9319 2.78543 32.2104 2.966C32.4879 3.14656 32.6189 3.42972 32.622 3.80522C32.6251 4.37769 32.4116 4.81885 31.9865 5.13279ZM47.1857 1.50711C47.2507 1.21266 47.065 0.973618 46.7607 0.977722H45.4918C45.2319 0.977722 44.9977 1.16957 44.8832 1.40554L44.8131 1.51429L44.7491 1.79335L42.9758 9.81005L42.9181 10.0563L42.9201 10.0624C42.8613 10.3261 43.0243 10.5251 43.276 10.5631L43.2977 10.5928H44.615C44.8729 10.5928 45.1153 10.3979 45.2257 10.1578L45.2938 10.0553L47.1898 1.50813L47.1857 1.50711ZM25.7744 3.17119C25.4392 3.17529 24.0765 3.17119 24.0765 3.17119C23.7711 3.17119 23.3791 3.41639 23.1852 3.70878C23.1852 3.70878 21.1571 7.17031 20.9601 7.5181L20.7249 7.51502L20.0936 3.73237C20.0235 3.43485 19.7109 3.18042 19.322 3.18042L18.0532 3.18247C17.7478 3.18247 17.5601 3.42459 17.6292 3.72006C17.6292 3.72006 18.5927 9.17294 18.7856 10.4564C18.8753 11.1643 18.7742 11.2905 18.7742 11.2905L17.5198 13.4634C17.3342 13.7589 17.4342 14 17.7385 14L19.2054 13.9979C19.5108 13.9979 19.912 13.7589 20.0936 13.4624L25.7363 3.97039C25.7363 3.97142 26.2789 3.1599 25.7744 3.17119Z" fill="#ACACAC"/>
		</g>
	</symbol>
	<symbol id="select-arrow-svg" viewBox="0 0 10 6">
		<g>
			<path d="M1 1L5 5L9 1" stroke="black"/>
		</g>
	</symbol>
	<symbol id="visa-svg" viewBox="0 0 28 9">
		<g>
			<path d="M10.6314 0.158269L6.9662 8.8623H4.57395L2.77156 1.9167C2.6606 1.48832 2.56577 1.3325 2.23305 1.15061C1.68804 0.857363 0.791547 0.582242 0 0.410966L0.0553984 0.158323H3.90425C4.39512 0.158323 4.83645 0.484168 4.94741 1.04589L5.90045 6.08361L8.25442 0.158323L10.6314 0.158269ZM20.0019 6.01923C20.0125 3.72324 16.8096 3.59828 16.8326 2.57111C16.8389 2.25756 17.1375 1.92579 17.7914 1.84203C18.1162 1.79903 19.0098 1.76752 20.0227 2.2303L20.4197 0.385386C19.8747 0.188529 19.1742 0 18.3036 0C16.0675 0 14.4933 1.1837 14.48 2.87736C14.4653 4.12985 15.6031 4.82873 16.4613 5.24584C17.3426 5.67265 17.6372 5.94516 17.6341 6.32793C17.6283 6.91213 16.931 7.16744 16.2805 7.17893C15.1427 7.19656 14.4828 6.87295 13.9558 6.62869L13.5462 8.537C14.074 8.77822 15.0515 8.98765 16.063 9C18.4396 8.99989 19.9944 7.82882 20.0019 6.01923ZM25.907 8.86236H28L26.1737 0.158323H24.2415C23.8074 0.158323 23.4414 0.410313 23.2783 0.796352L19.8854 8.86236H22.2602L22.7316 7.56246H25.6345L25.907 8.86236ZM23.3824 5.77845L24.5738 2.51026L25.2592 5.77845H23.3824ZM13.8646 0.158269L11.9927 8.8623H9.72978L11.6022 0.158269H13.8646Z" fill="#ACACAC"/>
		</g>
	</symbol>
	<symbol id="left-bag-svg" viewBox="0 0 625 1590">
		<g>
			<path d="M568 1529L561 1524L560.5 1523.5L538 1569.5L589 1589L614 1545L610 1541.5H601C599.4 1541.5 595.667 1540.5 594 1540L587.5 1537L580.5 1535L577 1531.5L568 1529Z" fill="#FFEAB6" stroke="black"/>
			<path d="M619.363 1508.45L585.216 1497L567.931 1508.45L538 1569.5L589.01 1589L624 1527.1L619.363 1508.45Z" stroke="black"/>
			<line x1="451" y1="210.5" x2="1" y2="210.5" stroke="black"/>
			<path d="M600 1430V1502M599.5 1430.5H0" stroke="black"/>
			<line x1="0.5" y1="210" x2="0.499947" y2="1430" stroke="black"/>
			<line x1="450.5" y1="82" x2="450.5" y2="210" stroke="black"/>
			<path d="M450.5 82.5C444 70.5 425.6 44.7 404 37.5" stroke="black"/>
			<path d="M404 37.5C403.5 37.3333 402 37 400 37C397.5 37 399 50.5 410 40.5" stroke="black"/>
			<path d="M403.5 49.5L411 40L412 27.5L405 15.5L373.5 1.5L354 39L389.5 55L403.5 49.5Z" stroke="black"/>
		</g>
	</symbol>
</svg>