<svg width="625" height="1440" viewBox="0 0 625 1440" fill="none" xmlns="http://www.w3.org/2000/svg">
<path d="M568 1379L561 1374L560.5 1373.5L538 1419.5L589 1439L614 1395L610 1391.5H601C599.4 1391.5 595.667 1390.5 594 1390L587.5 1387L580.5 1385L577 1381.5L568 1379Z" fill="#FFEAB6" stroke="black"/>
<path d="M619.363 1358.45L585.216 1347L567.931 1358.45L538 1419.5L589.01 1439L624 1377.1L619.363 1358.45Z" stroke="black"/>
<line x1="451" y1="210.5" x2="1" y2="210.5" stroke="black"/>
<path d="M600 1280V1352M599.5 1280.5H0" stroke="black"/>
<line x1="0.5" y1="210" x2="0.5" y2="1280" stroke="black"/>
<line x1="450.5" y1="82" x2="450.5" y2="210" stroke="black"/>
<path d="M450.5 82.5C444 70.5 425.6 44.7 404 37.5" stroke="black"/>
<path d="M404 37.5C403.5 37.3333 402 37 400 37C397.5 37 399 50.5 410 40.5" stroke="black"/>
<path d="M403.5 49.5L411 40L412 27.5L405 15.5L373.5 1.5L354 39L389.5 55L403.5 49.5Z" stroke="black"/>
</svg>
