<svg width="15" height="10" viewBox="0 0 15 10" fill="none" xmlns="http://www.w3.org/2000/svg">
<path d="M4.99995 10C5.91075 10 6.76455 9.75648 7.49993 9.33094C8.23545 9.75648 9.08911 10 10 10C12.7615 10 15 7.76134 15 5C15 2.23859 12.7613 0 10 0C9.08911 0 8.23545 0.243594 7.49993 0.669061C6.76455 0.243594 5.91075 0 4.99995 0C2.23853 0 0 2.23859 0 5C0 7.76141 2.23853 10 4.99995 10ZM8.88215 1.84925C9.23191 1.7248 9.60799 1.65641 10 1.65641C11.8437 1.65641 13.3435 3.15634 13.3435 5C13.3435 6.84366 11.8437 8.34359 10 8.34359C9.60799 8.34359 9.23191 8.27527 8.88215 8.15082C9.58082 7.29085 10 6.19446 10 5.00007C10 3.80568 9.58082 2.70915 8.88215 1.84925Z" fill="#ACACAC"/>
</svg>
