<svg width="52" height="14" viewBox="0 0 52 14" fill="none" xmlns="http://www.w3.org/2000/svg">
<path d="M9.3199 2.28067C9.14341 1.93868 8.87576 1.65155 8.54622 1.45068C8.16688 1.22773 7.74984 1.07545 7.31556 1.00132C6.76282 0.911316 6.20349 0.867389 5.64339 0.869998L2.68589 0.872051C2.52991 0.87886 2.38009 0.934511 2.25782 1.03106C2.13555 1.1276 2.04708 1.26011 2.00505 1.40964L0.0151554 10.0296C-0.0570544 10.321 0.135849 10.5651 0.443256 10.5651H1.8596C2.0158 10.5606 2.16637 10.5061 2.28886 10.4096C2.41136 10.3131 2.49923 10.1798 2.5394 10.0296L3.02527 7.93669C3.06558 7.78684 3.15338 7.65392 3.27565 7.55763C3.39793 7.46135 3.54815 7.40683 3.70404 7.40217H4.10945C5.84145 7.40012 7.18249 7.04822 8.14598 6.3434C9.11462 5.63755 9.59223 4.70497 9.59223 3.54976C9.5912 3.04397 9.50765 2.61923 9.3199 2.28067ZM6.26543 5.09688C5.83733 5.40877 5.24211 5.56471 4.47462 5.56471H4.12802C3.81958 5.56471 3.6308 5.32259 3.69785 5.02711L4.12389 3.19683C4.18372 2.90341 4.49422 2.66027 4.79854 2.66232L5.26274 2.65924C5.80432 2.65924 6.21797 2.7526 6.49443 2.93317C6.7678 3.11168 6.905 3.39587 6.90294 3.77239C6.91119 4.34486 6.69146 4.78499 6.26543 5.09688ZM49.6955 1.54507L49.6068 1.57174L49.4881 1.58816L49.3427 1.56559L49.2684 1.49377L49.2344 1.38092L49.2323 1.21164V0.584786H49.7058V0.390882H49.2323V0H48.9981V0.390882H48.8393V0.584786H48.9981V1.31423L49.1075 1.67536L49.4293 1.79027L49.5645 1.77898L49.7079 1.75128V1.54507H49.6955ZM51.8917 0.490399L51.5533 0.351898L51.3037 0.402169L51.0499 0.572474L50.9024 0.409351L50.6631 0.352924L50.433 0.403195L50.2154 0.542722V0.390882H49.9854V1.76052H50.2144V0.737652L50.4073 0.618642L50.5991 0.571449L50.7559 0.59915L50.8333 0.678147L50.8673 0.809468L50.8787 0.978747V1.76154H51.1087V0.885387L51.1046 0.812546L51.1005 0.745859L51.2965 0.62172L51.4904 0.573501L51.642 0.6012L51.7246 0.6802L51.7535 0.812546L51.7689 0.979774V1.76257H52V0.873076L51.8917 0.490399ZM16.1499 3.51282C15.6156 3.21325 14.7717 3.06346 13.6184 3.06346C13.048 3.06346 12.4796 3.10758 11.905 3.19581C11.481 3.26044 11.4398 3.27275 11.1788 3.32918C10.6403 3.44614 10.5557 3.98065 10.5557 3.98065L10.3824 4.68958C10.2844 5.14202 10.5464 5.12458 10.6558 5.08662C10.891 5.01686 11.022 4.94504 11.5027 4.83834C11.9617 4.73472 12.4456 4.65675 12.8293 4.66188C13.3956 4.66188 13.8289 4.72138 14.1177 4.84244C14.4024 4.96556 14.5448 5.1769 14.5448 5.48263L14.52 5.68167L14.3158 5.80683C13.5122 5.8571 12.9314 5.93097 12.2269 6.03254C11.5378 6.12795 10.9333 6.29518 10.4309 6.52396C9.89139 6.75993 9.49114 7.07695 9.21159 7.48014C8.94132 7.88539 8.80618 8.37681 8.80618 8.95339C8.80618 9.49612 9.00218 9.94445 9.38283 10.2912C9.76554 10.6318 10.271 10.798 10.8755 10.798C11.2582 10.796 11.5543 10.7662 11.7647 10.716L12.4507 10.481L13.0315 10.1609L13.5658 9.81005L13.5731 9.82031L13.5194 10.046L13.5163 10.0553V10.0573C13.4586 10.3323 13.6257 10.558 13.8949 10.5846L13.9001 10.5908H15.2153L15.2339 10.5826C15.3763 10.5638 15.51 10.5039 15.6184 10.4101C15.7268 10.3163 15.8051 10.1929 15.8435 10.0553L16.8761 5.60985L16.9298 5.24769L16.9545 4.90811C16.9587 4.27818 16.6853 3.81137 16.1499 3.51282ZM13.866 8.51121L13.6453 8.80053L13.0882 9.08677C12.8539 9.18661 12.6024 9.2406 12.3476 9.24579C11.9989 9.24579 11.7255 9.19551 11.5409 9.09292L11.2675 8.56456C11.2675 8.27832 11.3335 8.05159 11.4748 7.87718L12.0752 7.47091C12.3321 7.38473 12.6457 7.31189 13.0088 7.26161C13.3327 7.2216 13.9723 7.14876 14.0558 7.14671L14.1538 7.31804C14.1342 7.41551 13.9527 8.1706 13.866 8.51121ZM41.8752 3.51898C41.3377 3.21941 40.4949 3.06859 39.3447 3.06859C38.7743 3.06859 38.2048 3.11271 37.6323 3.20402C37.2073 3.26557 37.165 3.27891 36.903 3.33431C36.3656 3.45024 36.282 3.98681 36.282 3.98681L36.1087 4.69471C36.0117 5.14715 36.2676 5.12663 36.3872 5.09175C36.6234 5.02198 36.7503 4.95325 37.2269 4.84244C37.6839 4.73985 38.1718 4.66393 38.5566 4.66598C39.1209 4.66598 39.5541 4.72651 39.8419 4.84758C40.1287 4.97069 40.269 5.18408 40.269 5.48674L40.2473 5.68474L40.0452 5.81299C39.2333 5.86121 38.6515 5.93507 37.9542 6.03664C37.2671 6.13205 36.6606 6.29826 36.1572 6.52807C35.6197 6.76506 35.2143 7.08207 34.9379 7.4863C34.6645 7.89154 34.5314 8.38194 34.5314 8.95339C34.5314 9.50022 34.7254 9.94856 35.1112 10.2933C35.4959 10.6329 35.9963 10.8032 36.6007 10.8032C36.9814 10.7991 37.2775 10.7744 37.4889 10.7201L38.1729 10.4882L38.7588 10.1681L39.289 9.81313L39.2983 9.82442L39.2498 10.0522L39.2447 10.0563L39.2467 10.0604C39.1828 10.3353 39.3509 10.5631 39.6232 10.5877L39.6253 10.5928H40.9395L40.9612 10.5857C41.1032 10.5662 41.2362 10.5053 41.3434 10.4108C41.4506 10.3162 41.5273 10.1921 41.5636 10.0542L42.5993 5.61498L42.654 5.25077L42.6839 4.91016C42.6849 4.28228 42.4147 3.81753 41.8752 3.51898ZM39.5964 8.51737L39.3664 8.80976L38.8145 9.09395C38.581 9.19288 38.3307 9.24684 38.0769 9.25297C37.7169 9.25297 37.4508 9.20167 37.2713 9.09908L36.9948 8.57277C36.9948 8.2855 37.0619 8.06082 37.197 7.88334C37.3342 7.71611 37.5436 7.57863 37.8036 7.47809C38.1074 7.38067 38.4195 7.31096 38.7361 7.26982C39.0579 7.22981 39.6955 7.15492 39.778 7.15389L39.878 7.32522C39.8636 7.42269 39.681 8.1747 39.5964 8.51737ZM35.041 2.31247C34.8599 1.97097 34.5907 1.68348 34.2612 1.47941C33.8833 1.25335 33.4657 1.10085 33.0305 1.03005C32.4799 0.93956 31.9225 0.896312 31.3645 0.900777L28.4029 0.902828C28.2478 0.909786 28.099 0.965335 27.9776 1.06153C27.8563 1.15772 27.7686 1.28963 27.7272 1.43837L25.7352 10.0624C25.663 10.3548 25.8611 10.597 26.1623 10.597L27.5807 10.5949C27.7364 10.5893 27.8863 10.5346 28.0087 10.4387C28.1311 10.3428 28.2196 10.2107 28.2616 10.0614L28.7412 7.96746C28.783 7.81802 28.8714 7.68567 28.9938 7.58957C29.1162 7.49347 29.2662 7.43862 29.4221 7.43295H29.8275C31.5615 7.43295 32.9057 7.07797 33.8733 6.3752C34.8296 5.66422 35.3134 4.73369 35.3134 3.57746C35.3082 3.07372 35.2205 2.64796 35.041 2.31247ZM31.9865 5.13279C31.5595 5.43852 30.9632 5.59446 30.1999 5.59446H29.8471C29.7794 5.59852 29.7118 5.5864 29.6498 5.5591C29.5879 5.53181 29.5334 5.49014 29.491 5.43759C29.4485 5.38504 29.4194 5.32313 29.4059 5.25707C29.3925 5.19101 29.3952 5.12271 29.4138 5.05789L29.8429 3.23069C29.8824 3.08077 29.9697 2.94762 30.0917 2.85124C30.2137 2.75486 30.3639 2.70045 30.5197 2.69618L30.9787 2.6931C31.5234 2.69617 31.9319 2.78543 32.2104 2.966C32.4879 3.14656 32.6189 3.42972 32.622 3.80522C32.6251 4.37769 32.4116 4.81885 31.9865 5.13279ZM47.1857 1.50711C47.2507 1.21266 47.065 0.973618 46.7607 0.977722H45.4918C45.2319 0.977722 44.9977 1.16957 44.8832 1.40554L44.8131 1.51429L44.7491 1.79335L42.9758 9.81005L42.9181 10.0563L42.9201 10.0624C42.8613 10.3261 43.0243 10.5251 43.276 10.5631L43.2977 10.5928H44.615C44.8729 10.5928 45.1153 10.3979 45.2257 10.1578L45.2938 10.0553L47.1898 1.50813L47.1857 1.50711ZM25.7744 3.17119C25.4392 3.17529 24.0765 3.17119 24.0765 3.17119C23.7711 3.17119 23.3791 3.41639 23.1852 3.70878C23.1852 3.70878 21.1571 7.17031 20.9601 7.5181L20.7249 7.51502L20.0936 3.73237C20.0235 3.43485 19.7109 3.18042 19.322 3.18042L18.0532 3.18247C17.7478 3.18247 17.5601 3.42459 17.6292 3.72006C17.6292 3.72006 18.5927 9.17294 18.7856 10.4564C18.8753 11.1643 18.7742 11.2905 18.7742 11.2905L17.5198 13.4634C17.3342 13.7589 17.4342 14 17.7385 14L19.2054 13.9979C19.5108 13.9979 19.912 13.7589 20.0936 13.4624L25.7363 3.97039C25.7363 3.97142 26.2789 3.1599 25.7744 3.17119Z" fill="#ACACAC"/>
</svg>
