<svg width="624" height="1440" viewBox="0 0 624 1440" fill="none" xmlns="http://www.w3.org/2000/svg">
<path d="M57 1379L64 1374L64.5 1373.5L87 1419.5L36 1439L11 1395L15 1391.5H24C25.6 1391.5 29.3333 1390.5 31 1390L37.5 1387L44.5 1385L48 1381.5L57 1379Z" fill="#FFEAB6" stroke="black"/>
<path d="M5.63725 1358.45L39.7843 1347L57.0686 1358.45L87 1419.5L35.9902 1439L1 1377.1L5.63725 1358.45Z" stroke="black"/>
<path d="M24.5 1280L24.5 1352M624 1280.5H24" stroke="black"/>
<line x1="623" y1="210.5" x2="173" y2="210.5" stroke="black"/>
<line x1="623.5" y1="210" x2="623.5" y2="1281" stroke="black"/>
<line x1="173.5" y1="82" x2="173.5" y2="210" stroke="black"/>
<path d="M174 82.5C180.5 70.5 198.9 44.7 220.5 37.5" stroke="black"/>
<path d="M220.5 37.5C221 37.3333 222.5 37 224.5 37C227 37 225.5 50.5 214.5 40.5" stroke="black"/>
<path d="M221 49.5L213.5 40L212.5 27.5L219.5 15.5L251 1.5L270.5 39L235 55L221 49.5Z" stroke="black"/>
</svg>
