<svg width="28" height="9" viewBox="0 0 28 9" fill="none" xmlns="http://www.w3.org/2000/svg">
<path d="M10.6314 0.158269L6.9662 8.8623H4.57395L2.77156 1.9167C2.6606 1.48832 2.56577 1.3325 2.23305 1.15061C1.68804 0.857363 0.791547 0.582242 0 0.410966L0.0553984 0.158323H3.90425C4.39512 0.158323 4.83645 0.484168 4.94741 1.04589L5.90045 6.08361L8.25442 0.158323L10.6314 0.158269ZM20.0019 6.01923C20.0125 3.72324 16.8096 3.59828 16.8326 2.57111C16.8389 2.25756 17.1375 1.92579 17.7914 1.84203C18.1162 1.79903 19.0098 1.76752 20.0227 2.2303L20.4197 0.385386C19.8747 0.188529 19.1742 0 18.3036 0C16.0675 0 14.4933 1.1837 14.48 2.87736C14.4653 4.12985 15.6031 4.82873 16.4613 5.24584C17.3426 5.67265 17.6372 5.94516 17.6341 6.32793C17.6283 6.91213 16.931 7.16744 16.2805 7.17893C15.1427 7.19656 14.4828 6.87295 13.9558 6.62869L13.5462 8.537C14.074 8.77822 15.0515 8.98765 16.063 9C18.4396 8.99989 19.9944 7.82882 20.0019 6.01923ZM25.907 8.86236H28L26.1737 0.158323H24.2415C23.8074 0.158323 23.4414 0.410313 23.2783 0.796352L19.8854 8.86236H22.2602L22.7316 7.56246H25.6345L25.907 8.86236ZM23.3824 5.77845L24.5738 2.51026L25.2592 5.77845H23.3824ZM13.8646 0.158269L11.9927 8.8623H9.72978L11.6022 0.158269H13.8646Z" fill="#ACACAC"/>
</svg>
